<svg width="174" height="38" viewBox="0 0 174 38" fill="none" xmlns="http://www.w3.org/2000/svg">
<path d="M67.7573 32.4286L57.3887 5.51857H50.2073L39.7983 32.4286H46.3342L48.0287 27.8696H59.5673L61.2214 32.4286H67.7573ZM57.9939 22.8265H49.6021L53.798 11.2475L57.9939 22.8265Z" fill="#003566"/>
<path d="M71.0492 10.8441C72.7437 10.8441 74.1154 9.47236 74.1154 7.77788C74.1154 6.08339 72.7437 4.75201 71.0492 4.75201C69.3951 4.75201 67.983 6.08339 67.983 7.77788C67.983 9.47236 69.3951 10.8441 71.0492 10.8441ZM73.6313 32.4286V12.942H68.5075V32.4286H73.6313Z" fill="#003566"/>
<path d="M100.533 32.4286C105.657 32.4286 108.36 29.201 108.36 25.1665C108.36 21.7775 106.06 18.9937 103.196 18.5499C105.737 18.0255 107.835 15.7662 107.835 12.3772C107.835 8.7865 105.213 5.51857 100.089 5.51857H85.9279V32.4286H100.533ZM98.8383 16.2906H91.6569V10.4406H98.8383C100.775 10.4406 101.985 11.6913 101.985 13.3858C101.985 15.0803 100.775 16.2906 98.8383 16.2906ZM99.04 27.4662H91.6569V21.2127H99.04C101.299 21.2127 102.51 22.6651 102.51 24.3596C102.51 26.2962 101.219 27.4662 99.04 27.4662Z" fill="#003566"/>
<path d="M113.487 10.8441C115.181 10.8441 116.553 9.47236 116.553 7.77788C116.553 6.08339 115.181 4.75201 113.487 4.75201C111.833 4.75201 110.421 6.08339 110.421 7.77788C110.421 9.47236 111.833 10.8441 113.487 10.8441ZM116.069 32.4286V12.942H110.945V32.4286H116.069Z" fill="#003566"/>
<path d="M138.094 32.4286V5.51857H132.93V15.4434C131.397 13.4665 129.219 12.4579 126.919 12.4579C121.956 12.4579 118.285 16.331 118.285 22.7055C118.285 29.201 121.997 32.9127 126.919 32.9127C129.259 32.9127 131.397 31.8637 132.93 29.9272V32.4286H138.094ZM128.492 28.3537C125.588 28.3537 123.57 26.0541 123.57 22.7055C123.57 19.3165 125.588 17.0168 128.492 17.0168C130.227 17.0168 132.083 17.9448 132.93 19.2358V26.1348C132.083 27.4258 130.227 28.3537 128.492 28.3537Z" fill="#003566"/>
<path d="M150.72 32.9127C153.746 32.9127 156.812 31.9848 158.748 30.2096L156.489 26.9013C155.238 28.1117 152.939 28.8379 151.285 28.8379C147.976 28.8379 145.999 26.7803 145.677 24.3193H160.161V23.1896C160.161 16.8151 156.207 12.4579 150.397 12.4579C144.466 12.4579 140.311 17.0168 140.311 22.6651C140.311 28.9186 144.789 32.9127 150.72 32.9127ZM155.198 20.8496H145.596C145.838 18.913 147.21 16.5327 150.397 16.5327C153.786 16.5327 155.077 18.9937 155.198 20.8496Z" fill="#003566"/>
<path d="M168.784 32.9127C170.922 32.9127 172.294 32.3479 173.06 31.662L171.971 27.7889C171.688 28.0713 170.962 28.3537 170.196 28.3537C169.066 28.3537 168.42 27.4258 168.42 26.2155V17.4203H172.374V12.942H168.42V7.6165H163.256V12.942H160.029V17.4203H163.256V27.5872C163.256 31.0568 165.193 32.9127 168.784 32.9127Z" fill="#003566"/>
<path d="M14.1429 4.71429V7.85715M23.5715 4.71429V7.85715M14.1429 29.8572V33M23.5715 29.8572V33M7.85721 14.1429H4.71436M7.85721 23.5714H4.71436M33.0001 14.1429H29.8572M33.0001 23.5714H29.8572M11.0001 29.8572H26.7144C27.5479 29.8572 28.3473 29.526 28.9367 28.9366C29.5261 28.3472 29.8572 27.5478 29.8572 26.7143V11C29.8572 10.1665 29.5261 9.36707 28.9367 8.77767C28.3473 8.18827 27.5479 7.85715 26.7144 7.85715H11.0001C10.1665 7.85715 9.36713 8.18827 8.77773 8.77767C8.18833 9.36707 7.85721 10.1665 7.85721 11V26.7143C7.85721 27.5478 8.18833 28.3472 8.77773 28.9366C9.36713 29.526 10.1665 29.8572 11.0001 29.8572ZM14.1429 14.1429H23.5715V23.5714H14.1429V14.1429Z" stroke="#62B0FF" stroke-width="2.28571" stroke-linecap="round" stroke-linejoin="round"/>
</svg>
