<svg width="174" height="39" viewBox="0 0 174 39" fill="none" xmlns="http://www.w3.org/2000/svg">
<path d="M67.7573 33L57.3887 6.08998H50.2073L39.7983 33H46.3342L48.0287 28.441H59.5673L61.2214 33H67.7573ZM57.9939 23.3979H49.6021L53.798 11.8189L57.9939 23.3979Z" fill="white"/>
<path d="M71.0492 11.4155C72.7437 11.4155 74.1154 10.0438 74.1154 8.34929C74.1154 6.6548 72.7437 5.32343 71.0492 5.32343C69.3951 5.32343 67.983 6.6548 67.983 8.34929C67.983 10.0438 69.3951 11.4155 71.0492 11.4155ZM73.6313 33V13.5134H68.5075V33H73.6313Z" fill="white"/>
<path d="M100.533 33C105.657 33 108.36 29.7724 108.36 25.7379C108.36 22.3489 106.06 19.5652 103.196 19.1214C105.737 18.5969 107.835 16.3376 107.835 12.9486C107.835 9.35791 105.213 6.08998 100.089 6.08998H85.9279V33H100.533ZM98.8383 16.862H91.6569V11.012H98.8383C100.775 11.012 101.985 12.2627 101.985 13.9572C101.985 15.6517 100.775 16.862 98.8383 16.862ZM99.04 28.0376H91.6569V21.7841H99.04C101.299 21.7841 102.51 23.2365 102.51 24.931C102.51 26.8676 101.219 28.0376 99.04 28.0376Z" fill="white"/>
<path d="M113.487 11.4155C115.181 11.4155 116.553 10.0438 116.553 8.34929C116.553 6.6548 115.181 5.32343 113.487 5.32343C111.833 5.32343 110.421 6.6548 110.421 8.34929C110.421 10.0438 111.833 11.4155 113.487 11.4155ZM116.069 33V13.5134H110.945V33H116.069Z" fill="white"/>
<path d="M138.094 33V6.08998H132.93V16.0148C131.397 14.0379 129.219 13.0293 126.919 13.0293C121.956 13.0293 118.285 16.9024 118.285 23.2769C118.285 29.7724 121.997 33.4841 126.919 33.4841C129.259 33.4841 131.397 32.4351 132.93 30.4986V33H138.094ZM128.492 28.9251C125.588 28.9251 123.57 26.6255 123.57 23.2769C123.57 19.8879 125.588 17.5883 128.492 17.5883C130.227 17.5883 132.083 18.5162 132.93 19.8072V26.7062C132.083 27.9972 130.227 28.9251 128.492 28.9251Z" fill="white"/>
<path d="M150.72 33.4841C153.746 33.4841 156.812 32.5562 158.748 30.781L156.489 27.4727C155.238 28.6831 152.939 29.4093 151.285 29.4093C147.976 29.4093 145.999 27.3517 145.677 24.8907H160.161V23.761C160.161 17.3865 156.207 13.0293 150.397 13.0293C144.466 13.0293 140.311 17.5883 140.311 23.2365C140.311 29.49 144.789 33.4841 150.72 33.4841ZM155.198 21.421H145.596C145.838 19.4845 147.21 17.1041 150.397 17.1041C153.786 17.1041 155.077 19.5652 155.198 21.421Z" fill="white"/>
<path d="M168.784 33.4841C170.922 33.4841 172.294 32.9193 173.06 32.2334L171.971 28.3603C171.688 28.6427 170.962 28.9251 170.196 28.9251C169.066 28.9251 168.42 27.9972 168.42 26.7869V17.9917H172.374V13.5134H168.42V8.18791H163.256V13.5134H160.029V17.9917H163.256V28.1586C163.256 31.6283 165.193 33.4841 168.784 33.4841Z" fill="white"/>
<path d="M14.1429 5.28571V8.42856M23.5715 5.28571V8.42856M14.1429 30.4286V33.5714M23.5715 30.4286V33.5714M7.85721 14.7143H4.71436M7.85721 24.1428H4.71436M33.0001 14.7143H29.8572M33.0001 24.1428H29.8572M11.0001 30.4286H26.7144C27.5479 30.4286 28.3473 30.0974 28.9367 29.508C29.5261 28.9186 29.8572 28.1192 29.8572 27.2857V11.5714C29.8572 10.7379 29.5261 9.93848 28.9367 9.34908C28.3473 8.75968 27.5479 8.42856 26.7144 8.42856H11.0001C10.1665 8.42856 9.36713 8.75968 8.77773 9.34908C8.18833 9.93848 7.85721 10.7379 7.85721 11.5714V27.2857C7.85721 28.1192 8.18833 28.9186 8.77773 29.508C9.36713 30.0974 10.1665 30.4286 11.0001 30.4286ZM14.1429 14.7143H23.5715V24.1428H14.1429V14.7143Z" stroke="#62B0FF" stroke-width="2.28571" stroke-linecap="round" stroke-linejoin="round"/>
</svg>
